<?xml version="1.0" standalone="no"?>
<!DOCTYPE svg PUBLIC "-//W3C//DTD SVG 20010904//EN"
 "http://www.w3.org/TR/2001/REC-SVG-20010904/DTD/svg10.dtd">
<svg version="1.0" xmlns="http://www.w3.org/2000/svg"
 width="512.000000pt" height="512.000000pt" viewBox="0 0 512.000000 512.000000"
 preserveAspectRatio="xMidYMid meet">
<metadata>
Created by potrace 1.14, written by Peter Selinger 2001-2017
</metadata>
<g transform="translate(0.000000,512.000000) scale(0.100000,-0.100000)"
fill="#000000" stroke="none">
<path d="M2341 5109 c-610 -54 -1180 -324 -1607 -761 -435 -445 -679 -993
-726 -1630 -45 -609 159 -1257 552 -1753 219 -276 538 -533 861 -694 720 -358
1558 -358 2278 0 648 322 1121 895 1325 1604 170 594 107 1257 -175 1824 -202
406 -507 749 -894 1004 -468 308 -1056 455 -1614 406z m-103 -1713 c69 -36 97
-141 68 -256 -36 -141 -138 -312 -259 -431 -192 -191 -518 -325 -710 -292
l-57 10 -134 -167 c-180 -224 -169 -201 -121 -250 86 -88 299 -200 450 -236
128 -30 297 -12 370 39 40 28 53 45 66 88 9 29 8 41 -5 67 -15 29 -15 38 -2
94 8 35 28 94 45 131 17 38 31 72 31 75 0 4 -36 -30 -78 -75 -71 -76 -112
-102 -112 -71 0 6 30 45 68 87 37 42 88 101 112 131 228 282 253 305 299 280
35 -18 24 -53 -54 -169 -68 -101 -131 -214 -156 -278 -6 -16 46 28 133 112
317 305 458 398 539 355 41 -22 24 -58 -101 -220 -141 -181 -192 -274 -198
-361 -6 -76 9 -84 87 -44 39 20 98 71 193 166 76 75 140 133 143 128 13 -20
-30 -80 -123 -174 -174 -175 -262 -230 -336 -205 -48 15 -66 52 -66 132 1 88
34 174 126 325 42 71 80 133 83 138 3 6 -19 -10 -49 -34 -90 -73 -240 -231
-345 -362 -54 -68 -113 -140 -131 -159 -17 -19 -34 -51 -38 -70 -28 -160 -264
-247 -526 -192 -173 36 -332 114 -453 223 -36 33 -68 59 -72 59 -4 0 -30 -20
-57 -45 -28 -25 -83 -61 -124 -81 -63 -31 -84 -37 -144 -38 -79 0 -110 16
-145 75 -49 83 -8 267 96 441 89 147 148 188 196 136 11 -13 57 -92 101 -176
l79 -154 117 161 c64 88 116 165 116 169 0 5 -11 14 -24 20 -42 19 -108 85
-127 127 -55 119 16 281 145 330 60 23 114 10 147 -36 27 -39 20 -45 -22 -20
-68 42 -133 22 -187 -58 -72 -106 -46 -209 73 -291 l42 -29 88 132 c326 490
572 736 767 765 62 9 133 0 176 -22z m2077 -7 c190 -24 336 -104 390 -214 30
-59 27 -191 -4 -263 -53 -118 -217 -214 -406 -237 -61 -8 -109 -24 -72 -25 10
0 36 -9 58 -20 106 -55 172 -161 172 -280 0 -88 -16 -138 -66 -212 -57 -83
-140 -149 -262 -209 -162 -79 -334 -112 -513 -97 -157 13 -276 71 -352 172
l-41 55 -70 -54 c-86 -67 -161 -110 -216 -124 -161 -43 -176 213 -26 455 91
145 143 194 210 194 53 0 82 -47 133 -210 l32 -105 30 35 c16 19 109 141 205
270 312 417 510 644 596 684 43 20 125 23 156 7 42 -23 35 -91 -10 -91 -43 0
-380 -310 -486 -448 -165 -214 -263 -332 -359 -432 l-104 -107 50 -72 c61 -86
123 -134 210 -162 74 -23 192 -27 261 -9 187 50 365 185 441 333 26 51 32 74
32 132 1 59 -3 77 -26 117 -31 52 -92 108 -145 133 -19 9 -78 23 -132 30 -53
8 -109 19 -125 24 -37 15 -31 41 15 64 35 17 38 17 105 -4 59 -18 84 -21 174
-16 145 8 259 46 337 111 45 38 92 134 99 204 13 123 -28 204 -134 260 -85 45
-160 62 -307 69 -326 15 -647 -75 -849 -237 -144 -116 -216 -219 -216 -308 0
-59 9 -83 48 -124 21 -23 23 -28 8 -28 -50 0 -109 56 -126 120 -54 204 169
436 534 555 219 71 502 96 751 64z"/>
<path d="M2033 3358 c-103 -56 -202 -166 -402 -448 -68 -96 -166 -231 -217
-300 -63 -85 -89 -127 -81 -133 18 -12 144 3 217 25 36 11 101 38 145 60 165
83 284 188 386 340 197 295 211 478 37 478 -26 0 -60 -9 -85 -22z"/>
<path d="M594 2336 c-58 -122 -87 -302 -64 -388 27 -97 145 -71 280 61 l60 59
-53 91 c-28 49 -72 126 -96 171 -36 66 -48 80 -68 80 -20 0 -30 -12 -59 -74z"/>
<path d="M2993 2349 c-26 -41 -60 -105 -77 -144 -26 -60 -31 -82 -31 -156 0
-93 11 -119 50 -119 30 0 108 53 189 131 l69 66 -32 95 c-40 116 -80 192 -103
196 -12 2 -32 -18 -65 -69z"/>
</g>
</svg>
