<?xml version="1.0" standalone="no"?>
<!DOCTYPE svg PUBLIC "-//W3C//DTD SVG 20010904//EN"
 "http://www.w3.org/TR/2001/REC-SVG-20010904/DTD/svg10.dtd">
<svg version="1.0" xmlns="http://www.w3.org/2000/svg"
 width="400.000000pt" height="400.000000pt" viewBox="0 0 400.000000 400.000000"
 preserveAspectRatio="xMidYMid meet">

<g transform="translate(0.000000,400.000000) scale(0.100000,-0.100000)"
fill="#7451EB" stroke="none">
<path d="M235 3991 c-89 -22 -171 -89 -209 -170 l-21 -46 0 -1775 0 -1775 25
-50 c31 -63 89 -121 149 -149 l46 -21 1775 0 1775 0 50 25 c63 31 121 89 149
149 l21 46 0 1775 0 1775 -25 50 c-31 63 -89 121 -149 149 l-46 21 -1755 2
c-965 0 -1768 -2 -1785 -6z m1830 -520 c140 -33 210 -58 350 -126 413 -202
704 -576 807 -1036 20 -90 23 -131 23 -309 0 -160 -4 -224 -18 -290 -152 -711
-758 -1210 -1472 -1210 -219 0 -392 34 -580 114 -94 39 -228 113 -284 155
l-24 18 233 278 c128 152 242 288 254 302 l22 25 62 -31 c171 -86 408 -94 585
-19 147 62 295 197 360 330 59 120 80 220 75 357 -8 198 -78 352 -221 488
-129 122 -266 181 -442 190 -127 7 -220 -9 -321 -53 -43 -20 -84 -38 -90 -40
-6 -3 -125 131 -264 297 l-253 302 24 18 c48 38 183 113 268 149 110 48 210
78 336 101 139 26 438 20 570 -10z"/>
</g>
</svg>
