<?xml version="1.0" standalone="no"?>
<!DOCTYPE svg PUBLIC "-//W3C//DTD SVG 20010904//EN"
 "http://www.w3.org/TR/2001/REC-SVG-20010904/DTD/svg10.dtd">
<svg version="1.0" xmlns="http://www.w3.org/2000/svg"
 width="650.000000pt" height="366.000000pt" viewBox="0 0 650.000000 366.000000"
 preserveAspectRatio="xMidYMid meet">

<g transform="translate(0.000000,366.000000) scale(0.100000,-0.100000)"
fill="#BE32F5" stroke="none">
<path d="M3135 3551 c-61 -36 -262 -156 -448 -265 l-337 -199 0 -264 0 -263
78 46 c42 26 244 145 449 266 l372 220 123 -73 c68 -39 143 -84 168 -99 25
-15 162 -96 305 -181 143 -84 270 -159 283 -167 l22 -14 0 264 0 264 -82 48
c-46 27 -119 70 -163 96 -44 26 -203 120 -354 209 -151 89 -282 166 -290 170
-11 5 -51 -13 -126 -58z"/>

<path fill="#000" d="M2350 1436 c0 -728 1 -750 54 -890 52 -136 151 -263 270 -345 74 -51
204 -109 302 -133 76 -19 116 -22 269 -22 213 0 301 17 452 89 221 104 358
266 425 500 22 79 22 87 26 778 l3 697 -236 0 -235 0 0 -608 c0 -394 -4 -629
-11 -668 -36 -198 -194 -339 -394 -351 -192 -12 -356 91 -426 270 l-24 62 -3
648 -3 647 -234 0 -235 0 0 -674z"/>
</g>
</svg>
